<?xml version="1.0" encoding="UTF-8" standalone="no"?>
<svg
   viewBox="0 0 24 24"
   version="1.1"
   id="svg18"
   sodipodi:docname="arrow-up-down-right.svg"
   inkscape:version="1.2 (dc2aedaf03, 2022-05-15)"
   xmlns:inkscape="http://www.inkscape.org/namespaces/inkscape"
   xmlns:sodipodi="http://sodipodi.sourceforge.net/DTD/sodipodi-0.dtd"
   xmlns="http://www.w3.org/2000/svg"
   xmlns:svg="http://www.w3.org/2000/svg"
   xmlns:rdf="http://www.w3.org/1999/02/22-rdf-syntax-ns#"
   xmlns:cc="http://creativecommons.org/ns#"
   xmlns:dc="http://purl.org/dc/elements/1.1/">
  <defs
     id="defs22" />
  <sodipodi:namedview
     id="namedview20"
     pagecolor="#ffffff"
     bordercolor="#000000"
     borderopacity="0.25"
     inkscape:showpageshadow="2"
     inkscape:pageopacity="0.0"
     inkscape:pagecheckerboard="0"
     inkscape:deskcolor="#d1d1d1"
     showgrid="true"
     showguides="true"
     inkscape:zoom="32"
     inkscape:cx="14.953125"
     inkscape:cy="13.578125"
     inkscape:window-width="1920"
     inkscape:window-height="1001"
     inkscape:window-x="1911"
     inkscape:window-y="-9"
     inkscape:window-maximized="1"
     inkscape:current-layer="Right-4">
    <inkscape:grid
       type="xygrid"
       id="grid332" />
  </sodipodi:namedview>
  <title
     id="title13">Artboard-1</title>
  <g
     id="Right-4"
     data-name="Right"
     transform="matrix(0.82941122,0,0,0.63770766,3.6539267,3.8167956)">
    <g
       id="g7444">
      <path
         d="m 11.141281,14.313643 -1.1696066,1.758878 c -0.368464,0.533701 -0.993118,-0.276422 -0.6392233,-0.829018 l 0.5041013,-0.758075 -7.1965202,-0.04234 c -0.5611771,-1.6e-4 -0.5652606,-1.184618 -0.00408,-1.18446 l 7.1384042,0.05422 -0.5845247,-0.758076 C 8.7773005,12.00217 9.31602,11.192034 9.7411044,11.725749 l 1.3562006,1.758877 c 0.176483,0.228946 0.19617,0.60007 0.04399,0.829017 z"
         style="fill:#f05457;fill-opacity:1;stroke-width:0.496801"
         id="path15"
         inkscape:transform-center-x="-0.018817967"
         inkscape:transform-center-y="1.6940522"
         sodipodi:nodetypes="ccccccccccsc" />
      <path
         d="m 8.2890282,22.35795 -1.7861613,0.104427 c -0.5513073,0.01883 -0.5283868,-1.12806 0.023454,-1.173685 L 7.2961558,21.243686 2.3724563,14.417243 C 1.9867571,13.887086 2.645312,13.068958 3.0310146,13.599119 l 4.8771134,6.779718 0.021446,-1.07325 c 0.024955,-0.769543 0.8476574,-0.817644 0.8418784,-0.04923 l -0.04976,2.490138 c -0.00651,0.324085 -0.2001996,0.597814 -0.4326541,0.611468 z"
         style="fill:#f05457;fill-opacity:1;stroke-width:0.496801"
         id="path7437"
         inkscape:transform-center-x="1.1963514"
         inkscape:transform-center-y="1.2026289"
         sodipodi:nodetypes="ccccccccccsc" />
      <path
         d="M 8.3383688,5.3224834 6.5526641,5.2056093 c -0.5512224,-0.022671 -0.5330267,1.1243618 0.01862,1.1738315 l 0.7696381,0.050371 -4.951753,6.7920312 c -0.3878799,0.527461 0.267295,1.350167 0.6551763,0.822702 l 4.9049748,-6.745632 0.017023,1.0733843 c 0.021785,0.7697055 0.8442763,0.8235397 0.8416634,0.055097 L 8.7685061,5.9369457 C 8.7633323,5.6128195 8.5707729,5.3377448 8.3383781,5.3224708 Z"
         style="fill:#f05457;fill-opacity:1;stroke-width:0.496801"
         id="path7439"
         inkscape:transform-center-x="1.1943093"
         inkscape:transform-center-y="-1.213017"
         sodipodi:nodetypes="ccccccccccsc" />
    </g>
  </g>
  <metadata
     id="metadata1843">
    <rdf:RDF>
      <cc:Work
         rdf:about="">
        <dc:title>Artboard-1</dc:title>
      </cc:Work>
    </rdf:RDF>
  </metadata>
</svg>
