<?xml version="1.0" encoding="UTF-8" standalone="no"?>
<svg
   viewBox="0 0 24 24"
   version="1.1"
   id="svg18"
   sodipodi:docname="arrow-down-right.svg"
   inkscape:version="1.2 (dc2aedaf03, 2022-05-15)"
   xmlns:inkscape="http://www.inkscape.org/namespaces/inkscape"
   xmlns:sodipodi="http://sodipodi.sourceforge.net/DTD/sodipodi-0.dtd"
   xmlns="http://www.w3.org/2000/svg"
   xmlns:svg="http://www.w3.org/2000/svg"
   xmlns:rdf="http://www.w3.org/1999/02/22-rdf-syntax-ns#"
   xmlns:cc="http://creativecommons.org/ns#"
   xmlns:dc="http://purl.org/dc/elements/1.1/">
  <defs
     id="defs22" />
  <sodipodi:namedview
     id="namedview20"
     pagecolor="#ffffff"
     bordercolor="#000000"
     borderopacity="0.25"
     inkscape:showpageshadow="2"
     inkscape:pageopacity="0.0"
     inkscape:pagecheckerboard="0"
     inkscape:deskcolor="#d1d1d1"
     showgrid="true"
     showguides="true"
     inkscape:zoom="45.254834"
     inkscape:cx="8.8277862"
     inkscape:cy="12.518"
     inkscape:window-width="1920"
     inkscape:window-height="1001"
     inkscape:window-x="1911"
     inkscape:window-y="-9"
     inkscape:window-maximized="1"
     inkscape:current-layer="Right-4">
    <inkscape:grid
       type="xygrid"
       id="grid332" />
  </sodipodi:namedview>
  <title
     id="title13">Artboard-1</title>
  <g
     id="Right-4"
     data-name="Right"
     transform="matrix(0.82941122,0,0,0.63770766,3.6539267,3.8167956)">
    <path
       d="M 11.389417,12.196262 10.219809,10.437384 C 9.8513452,9.9036834 9.2266912,10.713806 9.5805859,11.266402 l 0.5041011,0.758075 -4.1571187,0.02136 c 0,0 -0.3638914,0.05538 -0.5087537,-0.13166 C 5.2642495,11.714608 5.3129819,11.199138 5.3129819,11.199138 5.3092819,9.7813884 5.3018729,6.9458884 5.3018729,6.9458884 5.3058629,5.8067114 4.2813665,5.8477754 4.2397098,6.8889484 l 0.00861,4.7572996 c 0,0 -0.061713,0.801692 0.2239337,1.204748 0.2856464,0.403056 0.7491016,0.418456 0.7491016,0.418456 l 4.8011389,-0.07241 -0.5845243,0.758076 c -0.4125354,0.552564 0.1261841,1.3627 0.5512684,0.828985 L 11.34544,13.025226 c 0.176483,-0.228946 0.19617,-0.60007 0.04399,-0.829017 z"
       style="fill:#f05457;fill-opacity:1;stroke-width:0.496801"
       id="path15"
       inkscape:transform-center-x="-0.018817967"
       inkscape:transform-center-y="-1.6940523"
       sodipodi:nodetypes="cccccssccczcccccsc" />
  </g>
  <metadata
     id="metadata1843">
    <rdf:RDF>
      <cc:Work
         rdf:about="">
        <dc:title>Artboard-1</dc:title>
      </cc:Work>
    </rdf:RDF>
  </metadata>
</svg>
