<svg width="130" height="49" viewBox="0 0 130 49" fill="none" xmlns="http://www.w3.org/2000/svg">
<g clip-path="url(#clip0_1_38)">
<path d="M39.5342 48.6429V22.8547H46.499V48.6429H39.5342Z" fill="black"/>
<path d="M52.091 48.6429V22.8547H59.1079L69.2051 37.2286V22.8547H76.1709V48.6429H69.8858L59.0535 33.2746V48.6429H52.091Z" fill="black"/>
<path d="M81.7641 48.6429V22.8547H83.1958C83.9605 22.8547 84.8469 22.8517 85.8551 22.8456C86.8633 22.8396 87.8466 22.8396 88.8048 22.8456C89.7601 22.8524 90.5164 22.8675 91.0739 22.8908C94.193 22.9986 96.7388 23.6046 98.7114 24.7091C100.684 25.8135 102.137 27.3058 103.071 29.1862C104.002 31.0643 104.467 33.2223 104.468 35.6601C104.468 38.1687 103.984 40.4009 103.017 42.3566C102.049 44.3123 100.575 45.8487 98.5922 46.966C96.6106 48.0832 94.092 48.6422 91.0364 48.6429H81.7641ZM88.7288 43.186H91.2531C92.1365 43.186 93.035 42.9393 93.9487 42.4459C94.8624 41.9524 95.6319 41.1467 96.2574 40.0288C96.8844 38.9108 97.1979 37.4188 97.1979 35.5527C97.1979 33.9707 96.9502 32.6422 96.4548 31.5672C95.9594 30.4921 95.264 29.6804 94.3685 29.132C93.473 28.5858 92.4345 28.3123 91.2531 28.3116H88.7288V43.186Z" fill="black"/>
<path d="M118.881 49C117.541 48.9999 116.207 48.8321 114.91 48.5005C113.639 48.1826 112.425 47.671 111.311 46.984C110.243 46.3293 109.324 45.4576 108.617 44.4257C107.913 43.3974 107.506 42.1875 107.398 40.796H114.489C114.606 41.3747 114.879 41.9108 115.277 42.3476C115.72 42.8062 116.27 43.1466 116.879 43.3375C117.553 43.5695 118.362 43.6855 119.306 43.6855C119.88 43.6839 120.451 43.6149 121.008 43.4798C121.536 43.3646 122.03 43.1265 122.449 42.7849C122.837 42.4572 123.031 42.0082 123.031 41.4379C123.031 40.6891 122.721 40.1749 122.1 39.8954C121.395 39.5911 120.655 39.3726 119.897 39.2445L115.473 38.4535C113.933 38.18 112.614 37.7194 111.515 37.0715C110.461 36.4677 109.591 35.5891 109 34.5301C108.42 33.4852 108.131 32.2309 108.132 30.7671C108.132 29.0344 108.616 27.5514 109.582 26.3182C110.549 25.085 111.864 24.1471 113.527 23.5045C115.186 22.8573 117.048 22.5334 119.113 22.5326C121.369 22.5326 123.287 22.8773 124.87 23.5666C126.452 24.2559 127.667 25.2145 128.514 26.4425C129.36 27.6674 129.802 29.0766 129.839 30.6699H122.927C122.852 30.0153 122.649 29.486 122.318 29.0822C121.961 28.6611 121.493 28.348 120.966 28.1782C120.304 27.9676 119.611 27.8683 118.916 27.8844C117.63 27.8844 116.729 28.1104 116.212 28.5624C115.696 29.0144 115.439 29.5019 115.443 30.0247C115.441 30.2849 115.497 30.5423 115.607 30.7784C115.717 31.0144 115.878 31.2233 116.078 31.3897C116.502 31.7664 117.258 32.0429 118.347 32.2192L122.197 32.843C124 33.1292 125.477 33.6287 126.629 34.3414C127.781 35.054 128.632 35.9456 129.181 37.0161C129.729 38.0859 130.004 39.3104 130.005 40.6898C130.005 42.3668 129.518 43.8264 128.544 45.0687C127.571 46.3109 126.247 47.2767 124.574 47.966C122.903 48.6546 121.005 48.9992 118.881 49Z" fill="black"/>
<path d="M28.8199 22.8479H22.115L18.0398 36.9901L13.9669 22.8479H7.26086L14.6874 48.6282L14.6851 48.6361H14.6896H21.3912H21.3957L21.3934 48.6282L28.8199 22.8479Z" fill="#0BBBC8"/>
<path d="M5.59086 28.7771L0 48.6361H6.70608L8.33637 42.8459C8.75908 41.3442 8.75437 39.755 8.32276 38.2558L5.59086 28.7771Z" fill="black"/>
<path d="M27.7444 42.8459L29.3747 48.6361H36.0774L30.4899 28.7771L27.758 38.2558C27.327 39.7551 27.3223 41.3441 27.7444 42.8459Z" fill="black"/>
<path d="M51.9934 17.8193L46.9312 0.248604L46.9335 0.242954H46.9301H42.3626H42.3592L42.3614 0.248604L37.2993 17.8193H41.8702L44.6463 8.18136L47.4225 17.8193H51.9934Z" fill="#0BBBC8"/>
<path d="M53.1313 13.7784L56.9421 0.242954H52.3712L51.2605 4.19012C50.9725 5.21345 50.9756 6.29637 51.2696 7.31802L53.1313 13.7784Z" fill="black"/>
<path d="M38.0321 4.19012L36.9215 0.242954H32.3505L36.1613 13.7784L38.0231 7.31802C38.317 6.29637 38.3202 5.21345 38.0321 4.19012Z" fill="black"/>
<path d="M4.74679 0.242954H0V17.8193H11.8012V13.9298H4.74679V0.242954Z" fill="black"/>
<path d="M27.0308 1.13002C25.7534 0.376674 24.2603 0 22.5518 0C20.8432 0 19.3422 0.376674 18.0489 1.13002C16.7665 1.87705 15.7265 2.97529 15.0527 4.29408C14.3409 5.65011 13.9851 7.24419 13.9851 9.07633C13.9851 10.9085 14.3349 12.4928 15.0345 13.8292C15.7005 15.1343 16.7328 16.2186 18.0058 16.9503C19.2878 17.6916 20.8031 18.0623 22.5518 18.0623C24.2845 18.0623 25.7897 17.6916 27.0671 16.9503C28.3392 16.2146 29.3676 15.1247 30.0259 13.8145C30.721 12.4653 31.0689 10.8832 31.0697 9.06842C31.0697 7.23779 30.7157 5.6437 30.0078 4.28617C29.3386 2.97238 28.3055 1.87709 27.0308 1.13002ZM25.4867 12.1669C25.1971 12.9158 24.7985 13.4544 24.291 13.7829C23.7685 14.105 23.1662 14.2756 22.5518 14.2756C21.9373 14.2756 21.335 14.105 20.8126 13.7829C20.3043 13.4552 19.9038 12.9165 19.6111 12.1669C19.3184 11.4174 19.1724 10.4086 19.1732 9.14075C19.1732 7.83595 19.3199 6.79256 19.6134 6.01058C19.9069 5.22861 20.3073 4.6636 20.8148 4.31555C21.3302 3.97431 21.9352 3.79226 22.554 3.79226C23.1729 3.79226 23.7779 3.97431 24.2932 4.31555C24.8015 4.6636 25.2001 5.22861 25.489 6.01058C25.7779 6.79256 25.9224 7.83595 25.9224 9.14075C25.9209 10.4056 25.7757 11.4125 25.4867 12.1613V12.1669Z" fill="black"/>
<path d="M64.6024 4.25453C65.0727 3.94409 65.6265 3.78295 66.1907 3.79235C66.6805 3.7793 67.1657 3.8901 67.6009 4.11441C67.9962 4.33005 68.3268 4.64679 68.5584 5.03199C68.8142 5.46526 68.9833 5.94378 69.0564 6.44112H74.0108C73.9036 5.23838 73.4832 4.08431 72.7912 3.09287C72.1033 2.12151 71.1794 1.33968 70.1059 0.820396C69.0001 0.273465 67.7472 0 66.3472 0C64.6311 0 63.1403 0.362737 61.875 1.08821C60.6193 1.80399 59.5996 2.86795 58.94 4.15057C58.2487 5.46817 57.9031 7.01819 57.9031 8.80061C57.9031 10.583 58.2529 12.1696 58.9525 13.5603C59.6113 14.9086 60.6323 16.0488 61.9022 16.8543C63.1676 17.6566 64.65 18.0577 66.3495 18.0577C67.7578 18.0577 68.9301 17.8777 69.8665 17.5176C70.8028 17.1575 71.5535 16.6588 72.1185 16.0214C72.6845 15.3849 73.1197 14.6439 73.3993 13.8405C73.6937 13.001 73.9001 12.1334 74.0154 11.2516H69.0564C68.973 11.7757 68.804 12.2826 68.5561 12.7523C68.3301 13.19 68.0017 13.5671 67.5986 13.8518C67.1837 14.1336 66.6904 14.2783 66.1884 14.2654C65.2944 14.2654 64.5585 13.8541 63.9806 13.0314C63.4028 12.2088 63.1139 10.8211 63.1139 8.86841C63.1139 7.58019 63.2459 6.56543 63.5098 5.82413C63.7738 5.08284 64.138 4.55964 64.6024 4.25453Z" fill="black"/>
<path d="M90.1072 1.13002C88.8298 0.376674 87.3368 0 85.6282 0C83.9196 0 82.4187 0.376674 81.1253 1.13002C79.843 1.87677 78.8033 2.97511 78.1302 4.29408C77.4178 5.65011 77.0615 7.24419 77.0615 9.07633C77.0615 10.9085 77.4113 12.4928 78.1109 13.8292C78.7771 15.1346 79.8098 16.2189 81.0834 16.9503C82.3638 17.6916 83.8788 18.0623 85.6282 18.0623C87.3617 18.0623 88.8668 17.6916 90.1435 16.9503C91.4159 16.2147 92.4447 15.1247 93.1035 13.8145C93.7993 12.4653 94.1469 10.8832 94.1461 9.06842C94.1461 7.23779 93.7925 5.6437 93.0853 4.28617C92.4161 2.97208 91.3826 1.87673 90.1072 1.13002ZM88.5632 12.1669C88.275 12.9158 87.8764 13.4544 87.3674 13.7829C86.8451 14.105 86.243 14.2756 85.6288 14.2756C85.0145 14.2756 84.4124 14.105 83.8901 13.7829C83.3804 13.4552 82.9795 12.9165 82.6876 12.1669C82.3956 11.4174 82.2504 10.4086 82.2519 9.14075C82.2519 7.83595 82.3983 6.79256 82.691 6.01058C82.9837 5.22861 83.3845 4.6636 83.8935 4.31555C84.4087 3.97441 85.0135 3.79241 85.6322 3.79241C86.2508 3.79241 86.8556 3.97441 87.3708 4.31555C87.8791 4.6636 88.2777 5.22861 88.5666 6.01058C88.8555 6.79256 89 7.83595 89 9.14075C88.9977 10.4056 88.8521 11.4125 88.5632 12.1613V12.1669Z" fill="black"/>
<path d="M109.358 1.50745C108.011 0.7541 106.277 0.339758 104.154 0.264424C103.772 0.25011 103.255 0.24107 102.603 0.237303C101.951 0.233536 101.282 0.233536 100.596 0.237303C99.9083 0.237303 99.3032 0.237303 98.7806 0.237303H97.8038V17.8193H104.125C106.208 17.8193 107.925 17.4385 109.275 16.6769C110.58 15.9628 111.633 14.8655 112.289 13.5343C112.949 12.2023 113.278 10.681 113.277 8.97011C113.277 7.31275 112.96 5.84372 112.325 4.56303C111.691 3.28233 110.702 2.26381 109.358 1.50745ZM107.686 11.9488C107.258 12.7105 106.733 13.2593 106.112 13.5953C105.552 13.9151 104.92 14.0888 104.275 14.1004H102.56V3.96298H104.281C105.025 3.94815 105.759 4.14113 106.399 4.52008C107.03 4.918 107.526 5.49715 107.82 6.18122C108.158 6.91498 108.326 7.81899 108.326 8.89327C108.326 10.1687 108.113 11.1872 107.686 11.9488Z" fill="black"/>
<path d="M121.726 5.43766V4.15735H129.95L129.975 0.242954H116.942V17.8193H130V13.8812H121.689V12.3918" fill="black"/>
<path d="M127.779 7.07394H123.946V10.8911H127.779V7.07394Z" fill="black"/>
</g>
<defs>
<clipPath id="clip0_1_38">
<rect width="130" height="49" fill="white"/>
</clipPath>
</defs>
</svg>
