<?xml version="1.0" encoding="utf-8"?>
<!-- Generator: Adobe Illustrator 23.0.2, SVG Export Plug-In . SVG Version: 6.00 Build 0)  -->
<svg version="1.1" id="Layer_1" xmlns="http://www.w3.org/2000/svg" xmlns:xlink="http://www.w3.org/1999/xlink" x="0px" y="0px"
	 viewBox="0 0 700 700" style="enable-background:new 0 0 700 700;" xml:space="preserve">
<style type="text/css">
	.st0{fill:#022C46;}
</style>
<path class="st0" d="M306,138.9c-1.5-1.3-1.5-3.6,0-4.8l51.2-43.5c2.1-1.8,5.2-0.3,5.2,2.4v23.1c113.7,13.8,202.5,108.7,206.7,225.1
	h-44.3c-4.2-92-73.2-167-162.5-180.5v19.2c0,2.7-3.1,4.2-5.2,2.4L306,138.9z M275.3,167.6c-11.2-11.8-14.9-28.2-10.9-43
	C170.7,153.4,101.9,239,98.1,341.2h44.3C146.1,259.7,200.8,191.5,275.3,167.6L275.3,167.6z M612.6,561.1l-51.2-43.5
	c-2.1-1.7-5.2-0.3-5.2,2.4v21.3h-56.9c-21.5,18.6-46.1,33.7-73,44.2h129.8V607c0,2.7,3.1,4.2,5.2,2.4l51.2-43.5
	C614.1,564.7,614.1,562.4,612.6,561.1L612.6,561.1z M569.1,358.8h-44.3c-4.6,101.6-88.4,182.6-191.2,182.6H97.2c-6.1,0-11,4.9-11,11
	v22.3c0,6.1,4.9,11,11,11h236.4C460.8,585.7,564.5,484.9,569.1,358.8L569.1,358.8z M174.5,523.8h78.9c-63.1-29.2-107.7-91.7-111-165
	H98.1C100.5,424.1,129.5,482.6,174.5,523.8L174.5,523.8z M417.8,370.1c-2.1,8.9-5.7,17.4-10.5,25.2l7.3,16.4L395.3,431l-16.4-7.3
	c-7.8,4.8-16.3,8.3-25.2,10.5l-6.4,16.7H320l-6.4-16.7c-8.9-2.1-17.4-5.7-25.2-10.5L272,431l-19.3-19.3l7.3-16.4
	c-4.8-7.8-8.3-16.3-10.5-25.2l-16.7-6.4v-27.3l16.7-6.4c2.1-8.9,5.7-17.4,10.5-25.2l-7.3-16.4l19.3-19.3l16.4,7.3
	c7.8-4.8,16.3-8.3,25.2-10.5l6.4-16.7h27.3l6.4,16.7c8.9,2.1,17.4,5.7,25.2,10.5l16.4-7.3l19.3,19.3l-7.3,16.4
	c4.8,7.8,8.3,16.3,10.5,25.2l16.7,6.4v27.3L417.8,370.1z M381.2,350c0-26.3-21.3-47.6-47.6-47.6c-26.3,0-47.6,21.3-47.6,47.6
	s21.3,47.6,47.6,47.6C359.9,397.7,381.2,376.3,381.2,350z M250.8,247.7c43.7-35.3,104.9-38.9,152.1-9.6h-1.3
	c-4.8,0.2-8.6,4.2-8.4,9.1c0.2,4.8,4.2,8.6,9.1,8.4l25.3-0.9c5.9,0.2,10.4-5.4,8.8-11.2l-7.1-24.9c-1.3-4.7-6.2-7.4-10.9-6
	c-4.6,1.3-7.3,6-6.1,10.6c-53.6-33.3-122.9-29.3-172.5,10.9c-57.5,46.5-71.9,127.7-35.1,190.9c2.4,4.2,7.8,5.6,12,3.2
	s5.6-7.8,3.2-12C187.3,360.4,200,288.8,250.8,247.7L250.8,247.7z M427.5,465.9c57.5-46.5,71.9-127.7,35.1-190.9
	c-2.4-4.2-7.8-5.6-12-3.2s-5.6,7.8-3.2,12c32.5,55.7,19.8,127.4-31,168.4c-43.6,35.3-104.9,39-152.1,9.6h1.3
	c4.8-0.2,8.6-4.2,8.4-9.1c-0.2-4.8-4.2-8.6-9.1-8.4l-25.3,0.9c-5.9-0.2-10.4,5.4-8.8,11.2l7.1,24.9c1.3,4.7,6.2,7.4,10.9,6
	c4.6-1.3,7.3-6,6.1-10.6C308.6,510.1,377.9,506.1,427.5,465.9L427.5,465.9z"/>
</svg>
