<?xml version="1.0" encoding="utf-8"?>
<!-- Generator: Adobe Illustrator 23.0.2, SVG Export Plug-In . SVG Version: 6.00 Build 0)  -->
<svg version="1.1" id="Layer_1" xmlns="http://www.w3.org/2000/svg" xmlns:xlink="http://www.w3.org/1999/xlink" x="0px" y="0px"
	 viewBox="0 0 700 700" style="enable-background:new 0 0 700 700;" xml:space="preserve">
<style type="text/css">
	.st0{fill:#73B89E;}
</style>
<g>
	<path class="st0" d="M587.7,330.1c-3.7,0-6.6,3-6.6,6.6v141.5h-74.8c-3.7,0-6.6,3-6.6,6.6v59c0,3.7,3,6.6,6.6,6.6
		c3.7,0,6.6-3,6.6-6.6v-52.4h9.1V529c0,3.7,3,6.6,6.6,6.6c3.7,0,6.6-3,6.6-6.6v-37.6h23.5V529c0,3.7,3,6.6,6.6,6.6
		c3.7,0,6.6-3,6.6-6.6v-37.6h9.1v52.4c0,3.7,3,6.6,6.6,6.6c3.7,0,6.6-3,6.6-6.6v-59V336.7C594.3,333,591.4,330.1,587.7,330.1
		L587.7,330.1z"/>
	<path class="st0" d="M156.5,314.7h0.9c18.1,0,32.8-14.7,32.8-33.8c0-18.1-14.7-32.8-33.8-32.8c-18.1,0-32.8,14.7-32.8,33.8
		C123.7,299.9,138.4,314.7,156.5,314.7L156.5,314.7z M157.4,261.3c10.8,0,19.6,8.8,19.6,20.5c0,10.8-8.8,19.5-19.6,19.5h-0.9
		c-10.8,0-19.6-8.8-19.6-20.5C137,270.1,145.7,261.3,157.4,261.3L157.4,261.3z"/>
	<path class="st0" d="M186,478.3h-74.8V336.8c0-3.7-3-6.6-6.6-6.6c-3.7,0-6.6,3-6.6,6.6V544c0,3.7,3,6.6,6.6,6.6
		c3.7,0,6.6-3,6.6-6.6v-52.4h9.1v37.6c0,3.7,3,6.6,6.6,6.6c3.7,0,6.6-3,6.6-6.6v-37.6H157v37.6c0,3.7,3,6.6,6.6,6.6
		c3.7,0,6.6-3,6.6-6.6v-37.6h9.1V544c0,3.7,3,6.6,6.6,6.6c3.7,0,6.6-3,6.6-6.6v-59C192.6,481.3,189.7,478.3,186,478.3L186,478.3z"/>
	<path class="st0" d="M595.5,112.7H360.1c-3.7,0-6.6,3-6.6,6.6v98.4h-12.6V206c0-23.5-19.1-42.6-42.6-42.6h-41.8
		c-22.1,0-40.1,18-40.1,40.1v69.2c0,14.1,9.9,25.9,23.1,28.9V325c-0.1,0.1-0.2,0.2-0.3,0.3l-15.4,34.5l-18.2,0.3l-27.5-29.3
		c-8-11.7-22-16.5-35.6-12.3s-22.3,16.1-22.3,30.3V436c0,18.6,15.1,33.8,33.8,33.8h32v1.5c0,3.7,3,6.6,6.6,6.6h4.7l17.4,46.2
		c3,8,10.8,13.5,19.4,13.5c6.7,0,12.9-3.1,16.8-8.6c3.9-5.4,5-12.2,2.9-18.8l-11.2-32.3h82.2v38.3l-71.4,70.7c-1.3,1.3-2,3-2,4.8
		s0.7,3.5,2,4.7l18,17.4c1.3,1.3,3,1.9,4.6,1.9c1.7,0,3.4-0.7,4.7-2l46.4-46.7l-0.1,35c0,1.8,0.7,3.5,1.9,4.7c1.3,1.3,2.9,2,4.7,2
		h24.3c3.7,0,6.6-3,6.6-6.6l0.1-31l32.2,40.1c1.1,1.4,2.7,2.3,4.5,2.4c0.2,0,0.5,0,0.7,0c1.5,0,3-0.5,4.2-1.5l19.6-16
		c2.8-2.3,3.3-6.5,1-9.3l-60.7-75.3l-0.3-33.7h83.3l-11.2,32.3c-2.1,6.4-1.1,13.2,2.9,18.7c3.9,5.5,10.1,8.6,16.8,8.6
		c8.6,0,16.4-5.4,19.4-13.5l17.4-46.1h4.7c3.7,0,6.6-3,6.6-6.6v-1.6h32c18.6,0,33.8-15.2,33.8-33.8v-87.1c0-14.2-8.8-26.1-22.3-30.3
		c-13.6-4.2-27.5,0.6-34.9,11.5l-28.2,30l-18.2-0.3l-15.4-34.4c-1.1-2.4-3.4-3.9-6.1-3.9H316.1v-61.2H353v18c0,3.7,3,6.6,6.6,6.6
		h142.1c1.8,16.6,15.8,29.7,32.9,29.7s31.1-13,32.9-29.7h27.3c3.7,0,6.6-3,6.6-6.6V119.2C602.1,115.6,599.2,112.7,595.5,112.7
		L595.5,112.7z M186.6,443.2L186.6,443.2c-0.4,0.9-0.6,1.8-0.6,2.7v10.6h-32c-11.3,0-20.5-9.2-20.5-20.5v-87.1
		c0-10,6.7-15.7,13-17.6s15-1.1,21.3,7.9l28.1,30c2.6,2.8,6.5,4.3,9.9,4.2l22.3-0.3l11.6-0.2c0.9,0.1,1.9,0.5,2.2,0.9
		c0.3,0.3,0.9,1.1,0.9,2.2v5.5c0,1.1-0.6,1.8-0.9,2.2c-0.3,0.3-1.1,0.9-2.2,0.9l0,0l-22.6-0.2l-28.5-0.2c-3.3,0-6.5-1.7-8.5-4.3
		l-15.4-20.6c-2.2-2.9-6.3-3.6-9.3-1.4c-2.9,2.2-3.6,6.4-1.4,9.3l11.8,15.8l3.8,46.2c0.3,3.2,2.8,5.8,6,6.1l13.8,1.3L186.6,443.2z
		 M195.4,423.7l-12.8-1.2l-2.2-26.8c2.6,1,5.4,1.7,8.3,1.7l18.4,0.1L195.4,423.7z M240.3,521.2c-3.2,4.5-11.1,3.4-13-1.8l-15.7-41.6
		h17.1l12.7,36.6C242.1,516.8,241.7,519.2,240.3,521.2L240.3,521.2z M329.3,546.1L329.3,546.1l-53.2,53.6l-8.4-8.1l63.3-62.7
		l6.9,8.6L329.3,546.1z M351.5,595.4h-11l0.1-41.8l5.6-5.7l5.5,6.8L351.5,595.4z M412.6,590l-9.3,7.6l-65.2-81v-38.8h14.6l0.3,36.1
		c0,1.5,0.5,2.9,1.5,4.1L412.6,590z M464.9,519.4c-1.9,5.2-9.8,6.3-13,1.7c-1.4-2-1.8-4.4-1.1-6.6l12.7-36.6h17.1L464.9,519.4z
		 M492.8,464.6H199.3v-12h293.5V464.6z M496.8,423.6l-11.6-26l18.4-0.1c2.9,0,5.6-0.7,8.3-1.7l-2.2,26.8L496.8,423.6z M486.2,373.4
		c3.7,0.5,7.4-1.4,10-4.2l28.8-30.8c5.7-8.3,14.5-9.1,20.7-7.2c6.3,1.9,13,7.6,13,17.6v87.1c0,11.3-9.2,20.5-20.5,20.5h-32v-10.5
		c0-0.9-0.2-1.8-0.6-2.7l0,0l-3-6.8l13.9-1.3c3.2-0.3,5.8-2.9,6-6.1l3.8-46.2L538,367c2.2-2.9,1.6-7.1-1.4-9.3
		c-3-2.2-7.1-1.6-9.3,1.4L512,379.7c-2,2.7-5.2,4.3-8.5,4.3l-51.2,0.4c-1.1,0-1.8-0.5-2.2-0.9c-0.3-0.3-0.9-1.1-0.9-2.2v-5.5
		c0-1.1,0.6-1.8,0.9-2.2c0.3-0.3,1.6-0.7,2.3-0.9L486.2,373.4z M442.5,334.8l11.1,24.8h-0.9c-4.4,0-8.7,1.5-11.8,4.6
		c-3.2,3.1-5,7.3-5,11.7v5.5c0,4.4,1.7,8.5,4.9,11.6c3.1,3.1,6.9,4.4,11.6,4.7l18.2-0.1l18.6,41.6H202.9l2.4-5.4
		c0.1-0.1,0.1-0.2,0.2-0.4l16-35.7l18.3,0.1c4.6,0.1,8.5-1.6,11.7-4.7c3.1-3.1,4.9-7.2,4.9-11.6V376c0-4.4-1.8-8.6-4.9-11.7
		c-3.2-3.1-7.4-4.9-11.8-4.6h-1.1l11.1-24.9H442.5L442.5,334.8z M252.8,321.5v-33h18.6v33H252.8z M284.7,321.5v-33h18.6v33H284.7z
		 M316.5,246.9v-34.3c0-3.7-3-6.6-6.6-6.6c-3.7,0-6.6,3-6.6,6.6v62.6h-50.4v-62.6c0-3.7-3-6.6-6.6-6.6c-3.7,0-6.6,3-6.6,6.6v75.1
		c-5.7-2.6-9.8-8.3-9.8-15v-69.2c0-14.8,12-26.8,26.8-26.8h41.8c16.1,0,29.3,13.1,29.3,29.3v18.4c0,3.7,3,6.6,6.6,6.6h34
		c4.4,0,8,3.6,8,8s-3.6,8-8,8L316.5,246.9z M535.2,301.3c-11,0-20-9-20-20s9-20,20-20c5.9,0,11.5,2.6,15.3,7.2
		c3.1,3.6,4.7,8.2,4.7,12.9C555.2,292.3,546.3,301.3,535.2,301.3L535.2,301.3z M588.8,271.6H567c-1.3-4.3-3.4-8.3-6.3-11.8
		c-6.4-7.5-15.7-11.9-25.4-11.9c-15,0-27.5,10-31.7,23.6H366.8v-11.4h1.5c11.4,0,20.5-9,21.1-20.3l34-33.5c2.6-2.6,2.6-6.8,0-9.4
		c-2.6-2.6-6.8-2.6-9.4-0.1l-29.3,29c-3.9-4.9-9.6-8.2-16.4-8.2h-1.5V126h222.1L588.8,271.6z"/>
	<path class="st0" d="M278,154.2c19.3,0,34.9-15.7,34.9-34.9S297.3,84.4,278,84.4s-34.9,15.7-34.9,34.9S258.8,154.2,278,154.2z
		 M278,97.7c11.9,0,21.6,9.7,21.6,21.6s-9.7,21.6-21.6,21.6s-21.6-9.7-21.6-21.6S266.1,97.7,278,97.7z"/>
	<path class="st0" d="M500.8,184.7c-2.6-0.7-5.3,0.2-6.9,2.3l-15.1,19l-23.8-5.1c-2.6-0.6-5.2,0.5-6.7,2.5l-16.4,22.1l-26,5
		c-3.6,0.7-6,4.2-5.3,7.8c0.6,3.2,3.4,5.4,6.5,5.4c0.4,0,0.8,0,1.3-0.1l28.5-5.5c1.6-0.3,3.1-1.2,4.1-2.6l15.4-20.8l23.7,5.1
		c2.5,0.5,5-0.4,6.6-2.4l14.9-18.8l21.2,5.6c2.5,0.7,5.2-0.2,6.8-2.1l24.9-29.7v8.5c0,3.7,3,6.6,6.6,6.6c3.7,0,6.6-3,6.6-6.6v-26.7
		c0.1-2-0.6-3.9-2.3-5.3c0,0-0.1,0-0.1-0.1c0,0,0-0.1-0.1-0.1c-0.3-0.3-0.7-0.4-1.1-0.5c-0.4-0.2-0.7-0.5-1.1-0.6
		c-0.7-0.2-1.4-0.2-2.1-0.2c-0.2,0-0.3,0-0.5,0c-0.3,0-0.5-0.1-0.8,0l-25.9,5.3c-3.6,0.7-5.9,4.3-5.2,7.8c0.7,3.6,4.2,5.9,7.8,5.2
		l7.4-1.5l-21.9,26L500.8,184.7z"/>
	<path class="st0" d="M417.2,152.5h81.4c3.7,0,6.6-3,6.6-6.6c0-3.7-3-6.6-6.6-6.6h-81.4c-3.7,0-6.6,3-6.6,6.6
		S413.6,152.5,417.2,152.5z"/>
	<path class="st0" d="M417.2,178.4h40.7c3.7,0,6.6-3,6.6-6.6c0-3.7-3-6.6-6.6-6.6h-40.7c-3.7,0-6.6,3-6.6,6.6
		S413.6,178.4,417.2,178.4z"/>
</g>
</svg>
