<?xml version="1.0" encoding="utf-8"?>
<!-- Generator: Adobe Illustrator 23.0.2, SVG Export Plug-In . SVG Version: 6.00 Build 0)  -->
<svg version="1.1" id="Layer_1" xmlns="http://www.w3.org/2000/svg" xmlns:xlink="http://www.w3.org/1999/xlink" x="0px" y="0px"
	 viewBox="0 0 700 700" style="enable-background:new 0 0 700 700;" xml:space="preserve">
<style type="text/css">
	.st0{fill:#FABA51;}
</style>
<path class="st0" d="M350.1,96.3c-3.7,0-7,2.4-8.3,5.9l-15.7,45l-47.7,1l0,0c-3.7,0.1-7,2.5-8.1,6c-1.2,3.5,0,7.4,3,9.7l38,28.8
	l-13.8,45.6l0,0c-1.1,3.6,0.2,7.4,3.2,9.6s7.1,2.2,10.1,0.1l39.2-27.2l39.1,27.2l0,0c3.1,2.1,7.1,2.1,10.1-0.1c3-2.2,4.3-6,3.2-9.6
	l-13.8-45.6l38-28.8c2.9-2.3,4.1-6.1,3-9.7s-4.4-5.9-8.1-6l-47.7-1l-15.7-45l0,0C357.2,98.6,353.8,96.3,350.1,96.3L350.1,96.3z
	 M350.1,131.6l9.4,27l0,0c1.2,3.5,4.4,5.8,8.1,5.9l28.6,0.6l-22.8,17.3c-2.9,2.2-4.1,6-3.1,9.5l8.3,27.3l-23.4-16.3
	c-3-2.1-7-2.1-10,0l-23.4,16.3l8.3-27.3l0,0c1.1-3.5-0.2-7.3-3.1-9.5l-22.8-17.3l28.6-0.6c3.7-0.1,6.9-2.4,8.1-5.9L350.1,131.6z
	 M172.8,160.8c-3.7,0-7,2.4-8.2,5.9l-13.2,38.2l-40.1,0.8l0,0c-3.7,0.1-6.9,2.5-8.1,6.1c-1.1,3.6,0.1,7.4,3,9.7l32,24.5l-11.6,38.7
	l0,0c-1.1,3.6,0.2,7.5,3.2,9.7c3,2.2,7.1,2.2,10.1,0.1l32.9-23.1l32.9,23.1l0,0c3.1,2.1,7.1,2.1,10.1-0.1s4.3-6.1,3.2-9.7L207.4,246
	l32-24.5l0,0c2.9-2.3,4.2-6.2,3-9.7c-1.1-3.6-4.4-6-8.1-6.1l-40.1-0.8L181,166.7l0,0C179.8,163.2,176.5,160.8,172.8,160.8
	L172.8,160.8z M527.2,160.9c-3.7,0-7,2.4-8.2,5.9L505.8,205l-40.1,0.8l0,0c-3.7,0.1-6.9,2.5-8.1,6.1c-1.1,3.6,0.1,7.4,3,9.7l32,24.5
	L481,284.7c-1.1,3.6,0.2,7.5,3.2,9.7s7.1,2.3,10.1,0.1l32.9-23.1l32.9,23.1c3,2.1,7.1,2.1,10.1-0.1s4.3-6.1,3.2-9.7L561.9,246
	l32-24.5c2.9-2.3,4.2-6.2,3-9.7c-1.1-3.6-4.4-6-8.1-6.1l-40.1-0.8l-13.2-38.2l0,0C534.2,163.2,530.9,160.9,527.2,160.9L527.2,160.9z
	 M172.8,196.3l6.9,20.1c1.2,3.5,4.4,5.8,8,5.9l21.1,0.4L192,235.6l0,0c-2.9,2.2-4.1,6-3.1,9.6l6.1,20.4l-17.3-12.2
	c-3-2.1-7-2.1-9.9,0l-17.3,12.2l6.1-20.4l0,0c1.1-3.5-0.2-7.3-3.1-9.6l-16.8-12.8l21.1-0.4c3.6-0.1,6.9-2.4,8.1-5.9L172.8,196.3z
	 M527.2,196.4l6.9,20.1l0,0c1.2,3.5,4.4,5.8,8.1,5.9l21.1,0.4l-16.8,12.9c-2.9,2.2-4.1,6-3.1,9.5l6.1,20.4l-17.3-12.2l0,0
	c-3-2.1-7-2.1-9.9,0L505,265.6l6.1-20.4l0,0c1.1-3.5-0.2-7.3-3.1-9.5l-16.8-12.9l21.1-0.4l0,0c3.6-0.1,6.9-2.4,8-5.9L527.2,196.4z
	 M339.9,282.1c-88.7,0-160.8,72.1-160.8,160.8c0,45.6,19.1,86.9,49.6,116.1l0,0c0.3,0.3,0.6,0.6,0.9,0.8
	c28.8,27.2,67.6,43.9,110.3,43.9c42.5,0,81.2-16.6,110-43.6l0,0c0.7-0.5,1.3-1.1,1.8-1.7c30.2-29.3,49-70.2,49-115.5
	C500.7,354.2,428.6,282.1,339.9,282.1L339.9,282.1z M339.9,299.6c79.2,0,143.3,64.1,143.3,143.3c0,35.8-13.1,68.6-34.8,93.7
	c-12.8-31.2-38.9-55.5-71.3-66.2c17.7-11.9,29.3-32,29.3-54.7c0-36.4-30-66.1-66.6-66.1s-66.5,29.7-66.5,66.1
	c0,22.7,11.6,42.8,29.3,54.7c-32.3,10.7-58.4,35-71.2,66.2c-21.7-25.1-34.8-57.8-34.8-93.7C196.6,363.6,260.6,299.6,339.9,299.6
	L339.9,299.6z M339.9,367.1c27.2,0,49.1,21.7,49.1,48.6s-21.9,48.6-49.1,48.6s-49-21.7-49-48.6S312.6,367.1,339.9,367.1z
	 M339.9,481.9c44.7,0,82.1,28.7,94.9,68.4c-25.3,22.4-58.5,35.9-94.9,35.9s-69.7-13.5-94.9-35.9
	C257.8,510.6,295.2,481.9,339.9,481.9L339.9,481.9z"/>
</svg>
