<?xml version="1.0" encoding="utf-8"?>
<!-- Generator: Adobe Illustrator 23.0.2, SVG Export Plug-In . SVG Version: 6.00 Build 0)  -->
<svg version="1.1" id="Layer_1" xmlns="http://www.w3.org/2000/svg" xmlns:xlink="http://www.w3.org/1999/xlink" x="0px" y="0px"
	 viewBox="0 0 700 700" style="enable-background:new 0 0 700 700;" xml:space="preserve">
<style type="text/css">
	.st0{fill:#8C91AE;}
</style>
<g>
	<path class="st0" d="M262.5,411.2H280v17.5h-17.5V411.2z"/>
	<path class="st0" d="M262.5,446.2H280v17.5h-17.5V446.2z"/>
	<path class="st0" d="M262.5,376.2H280v17.5h-17.5V376.2z"/>
	<path class="st0" d="M262.5,341.2H280v17.5h-17.5V341.2z"/>
	<path class="st0" d="M621.3,260.1v-65.3l-23.9-7.7c-2.2-6.8-4.9-13.3-8-19.5l11.5-22.3l-46.1-46.1l-22.3,11.5
		c-6.2-3.2-12.8-5.9-19.5-8l-7.7-23.9H440l-7.7,23.9c-6.8,2.2-13.3,4.9-19.5,8l-22.3-11.5l-10.9,10.9c-29.9-19.7-65.6-31.4-104-31.4
		H267c-103.8,0-188.2,84.4-188.2,188.2c0,50.3,19.6,97.5,55.1,133.1l6.6,6.6c20.2,20.2,32.1,46.5,34.1,74.7
		c-14.3,0.2-25.8,11.9-25.8,26.2V525c0,14.5,11.8,26.3,26.3,26.3h0.5c4.4,39.3,37.8,70,78.2,70h35c40.5,0,73.9-30.7,78.2-70h0.5
		c14.5,0,26.3-11.8,26.3-26.3v-17.5c0-14.3-11.6-26-25.8-26.2c2-28.2,13.9-54.5,34.1-74.7l6.6-6.6c10.7-10.7,19.8-22.6,27.5-35.3
		l3.7,11.5h65.3l7.7-23.9c6.8-2.2,13.3-4.9,19.5-8l22.3,11.5l46.1-46.1l-11.5-22.3c3.2-6.2,5.9-12.7,8-19.5L621.3,260.1z
		 M262.5,201.2v-17.5H280v17.5h52.5v-17.5H350v35H192.5v-35H210v17.5H262.5z M344.6,236.2l-17.5,35H215.4l-17.5-35L344.6,236.2
		L344.6,236.2z M204.6,288.7h136.7c4.8,0,8.8,3.9,8.8,8.8c0,4.8-3.9,8.8-8.8,8.8h-140c-4.8,0-8.8-3.9-8.8-8.8c0-4.8,3.9-8.8,8.8-8.8
		H204.6z M217.9,323.7h106.7l15.8,157.5H202.2L217.9,323.7z M288.8,603.7h-35c-30.8,0-56.3-22.9-60.6-52.5h156.1
		C345,580.9,319.5,603.7,288.8,603.7L288.8,603.7z M376.3,507.5V525c0,4.8-3.9,8.8-8.8,8.8H175c-4.8,0-8.8-3.9-8.8-8.8v-17.5
		c0-4.8,3.9-8.8,8.8-8.8h192.5C372.3,498.7,376.3,502.7,376.3,507.5z M396.3,387.6l-6.6,6.6c-16.7,16.7-28.4,37-34.6,59.1l-13-129.6
		c14-0.5,25.3-12,25.3-26.2c0-12.7-9.1-23.3-21.1-25.7l21.1-42.2v-63.3H315v17.5h-17.5v-17.5H245v17.5h-17.5v-17.5H175v63.3
		l21.1,42.2c-12,2.4-21.1,13-21.1,25.7c0,14.2,11.3,25.7,25.3,26.2l-13,129.6c-6.2-22.1-17.9-42.4-34.6-59.1l-6.6-6.6
		c-32.2-32.3-50-75.1-50-120.7c0-94.1,76.6-170.7,170.7-170.7h8.6c94.1,0,170.7,76.6,170.7,170.7
		C446.3,312.5,428.5,355.4,396.3,387.6L396.3,387.6z M447.9,191.6c7.3-5,15.8-7.8,24.6-7.8c24.1,0,43.8,19.6,43.8,43.8
		s-19.6,43.8-43.8,43.8c-3,0-5.9-0.4-8.9-1.1c0-1.1,0.2-2.2,0.2-3.3C463.8,240.1,458,214.7,447.9,191.6L447.9,191.6z M462.5,287.9
		c3.3,0.6,6.6,0.9,10,0.9c33.8,0,61.3-27.5,61.3-61.2s-27.5-61.3-61.3-61.3c-11.6,0-22.8,3.3-32.5,9.4c-2.8-5.1-5.9-10.1-9.2-14.8
		c12.5-7.9,26.7-12.1,41.7-12.1c43.4,0,78.8,35.3,78.8,78.7s-35.3,78.7-78.8,78.7c-4.2,0-8.4-0.5-12.6-1.2
		C461,299.4,461.9,293.7,462.5,287.9L462.5,287.9z M583.1,254l-1.3,4.5c-2.4,8.6-5.8,16.9-10.1,24.5l-2.3,4.1l9.9,19.2l-28.1,28.1
		l-19.2-9.9l-4.1,2.3c-7.6,4.3-15.8,7.7-24.5,10.1l-4.5,1.3l-6.6,20.6h-39.7l-5-15.7c3-6.9,5.8-13.8,8-21c5.7,1,11.3,1.7,16.9,1.7
		c53.1,0,96.3-43.2,96.3-96.3s-43.2-96.3-96.3-96.3c-18.8,0-36.7,5.4-52.3,15.5c-8-9.6-16.9-18.3-26.5-26.1l0,0l19.2,9.9l4.1-2.3
		c7.6-4.3,15.8-7.7,24.5-10.1l4.5-1.3l6.6-20.6h39.7l6.6,20.6l4.5,1.3c8.6,2.4,16.9,5.8,24.5,10.1l4.1,2.3l19.2-9.9l28.1,28.1
		l-9.9,19.2l2.3,4.1c4.3,7.6,7.7,15.8,10.1,24.5l1.3,4.5l20.6,6.6v39.7L583.1,254z"/>
	<path class="st0" d="M131.8,254.5l-17.4-1.6c-0.4,4.6-0.6,9.3-0.6,14c0,36.8,13.2,72.3,37.1,100l13.2-11.4
		c-21.2-24.5-32.9-56-32.9-88.6C131.3,262.8,131.4,258.6,131.8,254.5L131.8,254.5z"/>
	<path class="st0" d="M139,221.7l-16.5-5.9c-2.1,6-3.9,12.3-5.3,18.6l17.1,3.7C135.5,232.6,137.1,227,139,221.7L139,221.7z"/>
</g>
</svg>
