<?xml version="1.0" encoding="UTF-8"?>
<!DOCTYPE svg PUBLIC "-//W3C//DTD SVG 1.1//EN" "http://www.w3.org/Graphics/SVG/1.1/DTD/svg11.dtd">
<svg xmlns="http://www.w3.org/2000/svg" version="1.1" width="250px" height="250px" style="shape-rendering:geometricPrecision; text-rendering:geometricPrecision; image-rendering:optimizeQuality; fill-rule:evenodd; clip-rule:evenodd" xmlns:xlink="http://www.w3.org/1999/xlink">
<g><path style="opacity:0.847" fill="#01aef0" d="M -0.5,160.5 C -0.5,159.5 -0.5,158.5 -0.5,157.5C 4.63128,152.87 9.63128,148.037 14.5,143C 16.5,142.333 18.5,141.667 20.5,141C 31.2571,126.748 45.2571,122.081 62.5,127C 73.8333,127.333 85.1667,127.667 96.5,128C 98.492,128.574 99.992,129.741 101,131.5C 106.833,125.667 112.667,119.833 118.5,114C 130.012,109.857 135.845,114.024 136,126.5C 137.262,120.715 138.928,115.048 141,109.5C 144.205,106.727 146.705,107.393 148.5,111.5C 147.346,114.452 146.346,117.452 145.5,120.5C 146,120.833 146.5,121.167 147,121.5C 150.756,119.86 154.589,118.526 158.5,117.5C 159.872,112.417 161.539,107.417 163.5,102.5C 159.851,101.474 158.685,99.1408 160,95.5C 170.916,88.2902 182.083,81.4569 193.5,75C 195.415,72.3547 196.582,69.5214 197,66.5C 183.581,74.1268 170.081,81.6268 156.5,89C 153.519,92.5933 151.685,96.7599 151,101.5C 147.741,103.815 145.241,102.982 143.5,99C 144.594,94.7055 146.261,90.7055 148.5,87C 144.577,81.9862 141.577,76.4862 139.5,70.5C 142.076,61.3755 148.076,57.5421 157.5,59C 162.841,62.827 166.341,67.9937 168,74.5C 176.086,69.8731 184.253,65.3731 192.5,61C 193.174,45.5299 193.841,30.0299 194.5,14.5C 197.775,12.7855 200.108,13.6189 201.5,17C 201.167,17.3333 200.833,17.6667 200.5,18C 214.5,18.3333 228.5,18.6667 242.5,19C 244.444,21.1529 244.944,23.6529 244,26.5C 240.5,29.3333 237,32.1667 233.5,35C 237.299,37.7969 240.799,40.9636 244,44.5C 244.896,47.025 244.396,49.1917 242.5,51C 228.594,52.2991 214.594,52.9658 200.5,53C 201.833,54 201.833,55 200.5,56C 203.851,57.9357 205.517,60.9357 205.5,65C 204.949,69.7675 203.282,74.1008 200.5,78C 201.833,96 201.833,114 200.5,132C 207.833,132.333 215.167,132.667 222.5,133C 226.275,134.442 229.108,136.942 231,140.5C 231.333,169.5 231.667,198.5 232,227.5C 235.209,226.146 238.376,226.313 241.5,228C 244.167,230 244.167,232 241.5,234C 176.5,234.667 111.5,234.667 46.5,234C 44.3604,228.789 46.1937,226.289 52,226.5C 53.4357,226.559 54.769,226.892 56,227.5C 56.3333,222.5 56.6667,217.5 57,212.5C 58.1667,208.667 60.6667,206.167 64.5,205C 75.7431,204.18 86.9098,204.347 98,205.5C 96.4967,189.338 103.83,182.338 120,184.5C 124.859,174.92 129.526,165.253 134,155.5C 134.601,146.154 134.934,136.821 135,127.5C 126.213,139.918 116.379,151.418 105.5,162C 103.283,163.275 100.949,164.275 98.5,165C 84.1667,165.333 69.8333,165.667 55.5,166C 53.208,167.29 51.208,168.957 49.5,171C 50.4757,173.147 50.309,175.314 49,177.5C 43.9488,183.054 38.4488,188.054 32.5,192.5C 21.4793,181.812 10.4793,171.145 -0.5,160.5 Z M 200.5,26.5 C 211.326,25.341 222.326,25.1743 233.5,26C 223.326,31.6521 222.993,37.6521 232.5,44C 221.833,44.6667 211.167,44.6667 200.5,44C 201.825,38.0677 201.825,32.2343 200.5,26.5 Z M 152.5,65.5 C 154.09,65.6282 155.423,66.2949 156.5,67.5C 158.87,70.8775 160.037,74.5442 160,78.5C 157.757,80.282 155.257,80.782 152.5,80C 151.126,77.4171 149.626,74.9171 148,72.5C 147.333,71.1667 147.333,69.8333 148,68.5C 149.652,67.6006 151.152,66.6006 152.5,65.5 Z M 192.5,83.5 C 193.827,99.6715 193.827,116.005 192.5,132.5C 187.478,133.756 183.978,136.756 182,141.5C 178.113,132.927 172.613,125.427 165.5,119C 168.393,111.653 170.893,104.153 173,96.5C 179.824,92.5154 186.324,88.1821 192.5,83.5 Z M 122.5,118.5 C 128,117.831 130.167,120.165 129,125.5C 120.876,135.959 112.376,146.126 103.5,156C 101.283,157.275 98.9494,158.275 96.5,159C 82.1667,159.333 67.8333,159.667 53.5,160C 50.7481,161.086 48.2481,162.586 46,164.5C 38.876,158.378 32.0427,151.878 25.5,145C 34.9934,132.206 47.3267,128.539 62.5,134C 73.8333,134.333 85.1667,134.667 96.5,135C 98.0135,137.916 97.6801,140.582 95.5,143C 87.1667,143.333 78.8333,143.667 70.5,144C 67.7723,146.435 68.1057,148.435 71.5,150C 80.2296,150.876 88.8963,150.542 97.5,149C 102.584,146.447 105.084,142.281 105,136.5C 111.036,130.631 116.87,124.631 122.5,118.5 Z M 129.5,183.5 C 132.844,174.98 136.677,166.646 141,158.5C 141.94,149.521 142.607,140.521 143,131.5C 147.418,129.694 151.751,127.694 156,125.5C 154.736,135.499 153.069,145.499 151,155.5C 144.353,165.303 137.186,174.637 129.5,183.5 Z M 163.5,128.5 C 167.135,132.307 170.635,136.307 174,140.5C 173.829,148.538 172.996,156.538 171.5,164.5C 170.244,157.506 169.077,150.506 168,143.5C 165.926,141.548 163.759,139.715 161.5,138C 162.866,135.003 163.533,131.836 163.5,128.5 Z M 191.5,140.5 C 201.886,140.191 212.219,140.524 222.5,141.5C 223.171,169.733 223.837,197.899 224.5,226C 224,226.5 223.5,227 223,227.5C 212.197,226.175 201.363,226.175 190.5,227.5C 189.669,220.524 189.169,213.524 189,206.5C 185.78,203.682 183.446,204.349 182,208.5C 181.193,214.416 181.359,220.25 182.5,226C 182,226.5 181.5,227 181,227.5C 170.197,226.175 159.363,226.175 148.5,227.5C 147.334,209.843 147.167,192.176 148,174.5C 148.5,174 149,173.5 149.5,173C 159.833,172.333 170.167,172.333 180.5,173C 181.293,174.085 181.96,175.252 182.5,176.5C 181.382,181.78 181.216,187.113 182,192.5C 183.455,195.829 185.621,196.662 188.5,195C 189.326,177.574 189.826,160.074 190,142.5C 190.717,141.956 191.217,141.289 191.5,140.5 Z M 181.5,145.5 C 182.235,152.09 182.402,158.757 182,165.5C 180.842,165.002 180.009,164.169 179.5,163C 180.569,157.216 181.235,151.383 181.5,145.5 Z M 160.5,146.5 C 161.604,152.221 162.604,158.054 163.5,164C 160.5,164.667 157.5,164.667 154.5,164C 158.385,158.846 160.385,153.013 160.5,146.5 Z M 17.5,148.5 C 19.7834,148.608 21.7834,149.441 23.5,151C 29.6071,158.11 36.1071,164.943 43,171.5C 43.6667,172.5 43.6667,173.5 43,174.5C 39.6514,178.016 36.1514,181.349 32.5,184.5C 24.3478,175.848 16.0145,167.348 7.5,159C 11.0374,155.631 14.3707,152.131 17.5,148.5 Z M 139.5,182.5 C 140.776,183.386 140.776,184.386 139.5,185.5C 138.913,184.767 138.913,183.767 139.5,182.5 Z M 108.5,192.5 C 118.172,192.334 127.839,192.5 137.5,193C 138.308,193.308 138.975,193.808 139.5,194.5C 140.811,205.469 140.811,216.469 139.5,227.5C 128.5,226.167 117.5,226.167 106.5,227.5C 105.334,216.849 105.168,206.182 106,195.5C 106.698,194.309 107.531,193.309 108.5,192.5 Z M 65.5,212.5 C 75.8387,212.334 86.172,212.5 96.5,213C 97,213.5 97.5,214 98,214.5C 98.8275,218.871 98.6609,223.205 97.5,227.5C 86.5,226.167 75.5,226.167 64.5,227.5C 63.0164,222.314 63.3498,217.314 65.5,212.5 Z"/></g>
<g><path style="opacity:0.821" fill="#01aef0" d="M 74.5,55.5 C 98.4894,56.3194 109.656,68.6528 108,92.5C 100.082,112.477 85.9156,118.977 65.5,112C 48.5752,100.463 45.0752,85.6298 55,67.5C 60.2533,61.2985 66.7533,57.2985 74.5,55.5 Z M 73.5,62.5 C 90.2763,60.8838 99.9429,68.3838 102.5,85C 100.521,101.653 91.1874,109.319 74.5,108C 62.5266,105.08 56.1932,97.4131 55.5,85C 56.6027,73.4139 62.6027,65.9139 73.5,62.5 Z"/></g>
<g><path style="opacity:0.81" fill="#01aef0" d="M 76.5,66.5 C 80.6189,66.1989 82.6189,68.1989 82.5,72.5C 87.1914,74.8444 87.5248,77.5111 83.5,80.5C 81.3821,79.0541 79.0488,78.3874 76.5,78.5C 76.33,79.8221 76.6634,80.9887 77.5,82C 86.5392,83.5797 89.0392,88.4131 85,96.5C 82.1084,97.8419 80.7751,100.175 81,103.5C 76.8222,104.917 74.8222,103.251 75,98.5C 72.4873,97.3206 70.654,95.4873 69.5,93C 71.2828,88.8506 73.6161,88.5173 76.5,92C 77.7932,92.49 79.1266,92.6567 80.5,92.5C 80.67,91.1779 80.3366,90.0113 79.5,89C 72.0763,87.9915 69.2429,83.8249 71,76.5C 71.6368,74.6969 72.8035,73.3636 74.5,72.5C 75.2945,70.5049 75.9612,68.5049 76.5,66.5 Z"/></g>
<g><path style="opacity:0.696" fill="#01aef0" d="M 58.5,143.5 C 63.1585,143.015 64.4919,144.848 62.5,149C 57.7282,149.81 56.3948,147.977 58.5,143.5 Z"/></g>
</svg>
