<?xml version="1.0" encoding="utf-8"?>
<!-- Generator: Adobe Illustrator 23.0.2, SVG Export Plug-In . SVG Version: 6.00 Build 0)  -->
<svg version="1.1" id="Layer_1" xmlns="http://www.w3.org/2000/svg" xmlns:xlink="http://www.w3.org/1999/xlink" x="0px" y="0px"
	 viewBox="0 0 700 700" style="enable-background:new 0 0 700 700;" xml:space="preserve">
<style type="text/css">
	.st0{fill:#E8343D;}
</style>
<path class="st0" d="M231.4,517.5v-26.8l-47.5-26.6v78.8c0,4-3.2,7.2-7.2,7.2s-7.2-3.2-7.2-7.2v-91.2c0-2.6,1.4-4.9,3.6-6.2
	c2.2-1.3,4.9-1.3,7.2-0.1l61.9,34.7c2.3,1.3,3.7,3.7,3.7,6.3v31c0,4-3.2,7.2-7.2,7.2S231.4,521.5,231.4,517.5L231.4,517.5z
	 M98.5,443.9v-86.1c0-24.6,24.3-35.6,48.3-35.6h6c-9.6-8.9-15.9-23.1-15.9-39.2c0-24.7,14.8-40,38.7-40s38.7,15.3,38.7,40
	c0,16.1-6.3,30.3-15.9,39.2h56.7c2.3,0,4.1-0.3,6.3-1l27-9.1l18.2-6.4l39.5-13.9c3.5-1.2,6.1-3.1,8.5-5.9l12.7-15.1
	c14.3-17,25.6-30.4,46.6-30.4l18.9-0.2c-11.1-8.8-18.5-24.3-18.5-41.9c0-25.1,15.1-40.8,39.4-40.8s39.4,15.6,39.4,40.8
	c0,17.3-7.1,32.6-17.9,41.5h44l0.1-42.7c0-11.3,7.6-20.6,18.1-23.5V89.9c0-4,3.2-7.2,7.2-7.2h65.3c2.5,0,4.9,1.3,6.2,3.5
	c1.3,2.2,1.4,4.8,0.2,7.1l-7.4,14.4l7.6,14.6c1.2,2.2,1.1,4.9-0.2,7.1c-1.3,2.2-3.7,3.5-6.2,3.5H552v40.8
	c10,3.1,17.2,12.3,17.2,23.3v67c0,13.7-11.2,24.9-24.9,24.9l-30.3,1.2c-5.8,0-11.1,2.2-15.1,6.2s-6.2,9.3-6.2,14.8v48.2l59.9,34.6
	c2.2,1.3,3.6,3.7,3.6,6.3v60.4c0,4-3.2,7.2-7.2,7.2s-7.2-3.2-7.2-7.2v-56.3l-59.9-34.6c-2.2-1.3-3.6-3.7-3.6-6.3v-52.3
	c0-9.4,3.7-18.3,10.4-25c6.7-6.7,15.6-10.4,25-10.4l30.3-1.2c6,0,10.7-4.7,10.7-10.4v-67c0-5.6-4.5-10.1-10.1-10.1
	c-6.2,0-10.8,4.3-10.8,10.1l-0.1,44.1c0,7.5-6.1,13.6-13.6,13.7H414c-13.8,0-21.3,8.2-35.6,25.3l-12.7,15.1
	c-4.1,4.9-8.8,8.1-14.8,10.2l-26.5,9.4c2,2.1,3.8,4.6,5,7.5c1.7,4,2.1,8.2,1.6,12.3l37.8-11.7c3.6-1.1,6.3-2.9,8.9-5.7l20.1-22.3
	c2-2.2,5.2-3,8-1.9s4.6,3.8,4.6,6.8v188.9c0,4-3.2,7.2-7.2,7.2s-7.2-3.2-7.2-7.2V318.7l-7.4,8.3c-4.3,4.8-9.2,7.9-15.3,9.8
	l-57.5,17.7l0,0l-41.3,14.7c-3.8,1.4-7.4,2-11.5,2h-19.5c-5.4,0-10.4,2.1-14.3,6c-3.9,3.9-6,9-6,14.3v36.7l58.5,33.8
	c2.2,1.3,3.6,3.7,3.6,6.3v49.3c0,4-3.2,7.2-7.2,7.2s-7.2-3.2-7.2-7.2v-45.1l-58.5-33.8c-2.2-1.3-3.6-3.7-3.6-6.3v-40.9
	c0-9.2,3.6-18,10.2-24.6c6.6-6.6,15.3-10.2,24.5-10.2H263c2.4,0,4.4-0.3,6.6-1.1l41.6-14.8c2.1-0.9,4-2.8,5-5.3s1-5.2,0-7.6
	c-2.1-5.1-8-7.5-13.1-5.4c-0.2,0.1-37,12.5-37,12.5c-3.7,1.2-7.1,1.8-10.9,1.8H146.8c-3.5,0-33.8,0.6-33.8,21.1v86
	c0,9.2,6.4,17,15.2,19.9v-95.2c0-4,3.2-7.2,7.2-7.2s7.2,3.2,7.2,7.2v103.6l0,0l0,0v70.7c0,4-3.2,7.2-7.2,7.2s-7.2-3.2-7.2-7.2v-64.2
	C111.2,475.5,98.5,461.1,98.5,443.9L98.5,443.9z M551.9,118.4h46.2l-3.8-7.4c-1.1-2.1-1.1-4.6,0-6.7l3.8-7.4h-46.2V118.4z
	 M428.9,198.2c0,19.4,11.2,35.1,24.9,35.1c13.8,0,24.9-15.8,24.9-35.1c0-22.9-15.6-26.3-24.9-26.3
	C444.5,171.9,428.9,175.3,428.9,198.2z M151.4,283c0,18.8,10.9,34.2,24.2,34.2c13.4,0,24.2-15.3,24.2-34.2
	c0-22.2-15.2-25.5-24.2-25.5S151.4,260.8,151.4,283z M508.8,467.8c4,0,7.2-3.2,7.2-7.2v-41.7c0-2.6-1.4-5-3.7-6.3l-63.4-35.5
	c-2.2-1.3-5-1.2-7.2,0.1c-2.2,1.3-3.6,3.7-3.6,6.2v105.2c0,4,3.2,7.2,7.2,7.2s7.2-3.2,7.2-7.2v-92.9l48.9,27.4v37.5
	C501.6,464.6,504.8,467.8,508.8,467.8L508.8,467.8z M610.1,495.1H480c-4,0-7.2,3.2-7.2,7.2v21.8H349.9c-4,0-7.2,3.2-7.2,7.2v17
	H219.8c-4,0-7.2,3.2-7.2,7.2v20.1H89.8c-4,0-7.2,3.2-7.2,7.2v27.3c0,4,3.2,7.2,7.2,7.2s7.2-3.2,7.2-7.2V590h115.6v20.1
	c0,4,3.2,7.2,7.2,7.2s7.2-3.2,7.2-7.2v-47.4h115.6v47.4c0,4,3.2,7.2,7.2,7.2s7.2-3.2,7.2-7.2v-71.6h115.6v71.6c0,4,3.2,7.2,7.2,7.2
	s7.2-3.2,7.2-7.2V509.5h115.9V610c0,4,3.2,7.2,7.2,7.2s7.2-3.2,7.2-7.2V502.3C617.3,498.3,614.1,495.1,610.1,495.1L610.1,495.1z"/>
</svg>
