<?xml version="1.0" encoding="UTF-8"?>
<!DOCTYPE svg PUBLIC "-//W3C//DTD SVG 1.1//EN" "http://www.w3.org/Graphics/SVG/1.1/DTD/svg11.dtd">
<svg xmlns="http://www.w3.org/2000/svg" version="1.1" width="250px" height="250px" style="shape-rendering:geometricPrecision; text-rendering:geometricPrecision; image-rendering:optimizeQuality; fill-rule:evenodd; clip-rule:evenodd" xmlns:xlink="http://www.w3.org/1999/xlink">
<g><path style="opacity:0.863" fill="#eb7d0f" d="M 115.5,3.5 C 147.224,1.7267 165.224,16.56 169.5,48C 165.276,79.5557 147.276,94.2224 115.5,92C 88.6956,83.5639 77.1956,65.3972 81,37.5C 86.4459,19.8865 97.9459,8.55319 115.5,3.5 Z M 117.5,11.5 C 145.832,10.6686 160.332,24.3352 161,52.5C 158.169,68.9994 148.669,79.4994 132.5,84C 105.923,86.4201 90.9234,74.4201 87.5,48C 88.9835,28.6949 98.9835,16.5282 117.5,11.5 Z"/></g>
<g><path style="opacity:0.866" fill="#eb7d0f" d="M 113.5,108.5 C 134.67,106.699 154.337,111.199 172.5,122C 180.167,122.333 187.833,122.667 195.5,123C 200.245,124.115 203.412,126.948 205,131.5C 205.265,139.512 205.265,147.512 205,155.5C 214.723,172.377 218.056,190.377 215,209.5C 212.864,213.629 210.031,217.129 206.5,220C 219.212,220.186 231.879,220.686 244.5,221.5C 245.814,229.392 245.814,237.225 244.5,245C 164.263,245.832 84.0966,245.665 4,244.5C 3.16855,236.812 3.33521,229.145 4.5,221.5C 17.1212,220.686 29.7879,220.186 42.5,220C 34.9815,214.456 31.6482,206.956 32.5,197.5C 32.9012,182.562 36.7345,168.562 44,155.5C 43.7349,147.512 43.7349,139.512 44,131.5C 45.5881,126.948 48.7548,124.115 53.5,123C 61.1667,122.667 68.8333,122.333 76.5,122C 88.0248,114.995 100.358,110.495 113.5,108.5 Z M 114.5,116.5 C 128.562,115.485 142.229,117.319 155.5,122C 134.833,122.667 114.167,122.667 93.5,122C 100.509,119.666 107.509,117.833 114.5,116.5 Z M 54.5,130.5 C 101.168,130.333 147.835,130.5 194.5,131C 196.995,133.219 197.995,136.052 197.5,139.5C 195.03,166.535 192.363,193.535 189.5,220.5C 146.167,220.5 102.833,220.5 59.5,220.5C 56.0733,191.568 53.5733,162.568 52,133.5C 53.045,132.627 53.8783,131.627 54.5,130.5 Z M 122.5,148.5 C 123.833,148.5 125.167,148.5 126.5,148.5C 126.79,152.961 129.123,155.795 133.5,157C 136.711,157.798 139.711,157.298 142.5,155.5C 143.086,155.709 143.586,156.043 144,156.5C 141.007,164.514 143.34,170.514 151,174.5C 151.483,175.448 151.649,176.448 151.5,177.5C 145.622,178.372 142.622,181.872 142.5,188C 146,195.167 144.167,197 137,193.5C 130.872,193.622 127.372,196.622 126.5,202.5C 125.167,202.5 123.833,202.5 122.5,202.5C 121.628,196.622 118.128,193.622 112,193.5C 104.833,197 103,195.167 106.5,188C 106.378,181.872 103.378,178.372 97.5,177.5C 97.6263,174.405 99.293,172.572 102.5,172C 106.587,167.248 107.421,162.082 105,156.5C 105.414,156.043 105.914,155.709 106.5,155.5C 111.814,158.476 116.647,157.809 121,153.5C 122.009,151.975 122.509,150.308 122.5,148.5 Z M 121.5,164.5 C 131.319,164.15 135.819,168.817 135,178.5C 132.747,184.926 128.247,187.426 121.5,186C 114.064,182.706 111.897,177.206 115,169.5C 116.805,167.174 118.972,165.508 121.5,164.5 Z M 45.5,169.5 C 47.9812,184.953 49.4812,200.62 50,216.5C 40.8915,209.736 37.8915,200.736 41,189.5C 42.1889,182.746 43.6889,176.079 45.5,169.5 Z M 202.5,169.5 C 207.455,180.907 209.289,192.907 208,205.5C 206.174,210.165 203.174,213.832 199,216.5C 199.833,200.831 201,185.165 202.5,169.5 Z M 11.5,228.5 C 86.8333,228.5 162.167,228.5 237.5,228.5C 237.5,231.5 237.5,234.5 237.5,237.5C 162.167,237.5 86.8333,237.5 11.5,237.5C 11.5,234.5 11.5,231.5 11.5,228.5 Z"/></g>
<g><path style="opacity:0.854" fill="#eb7d0f" d="M 118.5,140.5 C 122.514,140.334 126.514,140.501 130.5,141C 132.427,143.939 134.427,146.772 136.5,149.5C 139.619,146.738 142.952,146.238 146.5,148C 149.04,150.205 151.207,152.705 153,155.5C 152.841,158.639 152.174,161.639 151,164.5C 153.924,165.734 156.591,167.401 159,169.5C 159.667,173.5 159.667,177.5 159,181.5C 157.442,183.768 155.276,184.934 152.5,185C 151.426,185.739 150.759,186.739 150.5,188C 151.723,189.72 152.723,191.553 153.5,193.5C 151.784,198.053 148.784,201.553 144.5,204C 141.361,203.841 138.361,203.174 135.5,202C 134.266,204.924 132.599,207.591 130.5,210C 126.5,210.667 122.5,210.667 118.5,210C 116.573,207.061 114.573,204.228 112.5,201.5C 109.507,204.585 106.174,205.085 102.5,203C 99.9598,200.795 97.7932,198.295 96,195.5C 96.2018,192.34 96.8685,189.34 98,186.5C 95.0761,185.266 92.4095,183.599 90,181.5C 89.3333,177.5 89.3333,173.5 90,169.5C 92.9391,167.573 95.7724,165.573 98.5,163.5C 95.4147,160.507 94.9147,157.174 97,153.5C 99.4391,150.388 102.439,148.055 106,146.5C 108.453,147.827 110.953,148.661 113.5,149C 114.803,145.939 116.47,143.106 118.5,140.5 Z M 122.5,148.5 C 122.509,150.308 122.009,151.975 121,153.5C 116.647,157.809 111.814,158.476 106.5,155.5C 105.914,155.709 105.414,156.043 105,156.5C 107.421,162.082 106.587,167.248 102.5,172C 99.293,172.572 97.6263,174.405 97.5,177.5C 103.378,178.372 106.378,181.872 106.5,188C 103,195.167 104.833,197 112,193.5C 118.128,193.622 121.628,196.622 122.5,202.5C 123.833,202.5 125.167,202.5 126.5,202.5C 127.372,196.622 130.872,193.622 137,193.5C 144.167,197 146,195.167 142.5,188C 142.622,181.872 145.622,178.372 151.5,177.5C 151.649,176.448 151.483,175.448 151,174.5C 143.34,170.514 141.007,164.514 144,156.5C 143.586,156.043 143.086,155.709 142.5,155.5C 139.711,157.298 136.711,157.798 133.5,157C 129.123,155.795 126.79,152.961 126.5,148.5C 125.167,148.5 123.833,148.5 122.5,148.5 Z M 121.5,164.5 C 118.972,165.508 116.805,167.174 115,169.5C 111.897,177.206 114.064,182.706 121.5,186C 128.247,187.426 132.747,184.926 135,178.5C 135.819,168.817 131.319,164.15 121.5,164.5 Z"/></g>
<g><path style="opacity:0.822" fill="#eb7d0f" d="M 82.5,152.5 C 86.1477,153.5 87.3144,155.834 86,159.5C 80.5,165 75,170.5 69.5,176C 74.9681,180.467 80.1347,185.3 85,190.5C 87.5512,194.306 86.7179,196.973 82.5,198.5C 74.8819,192.384 67.7152,185.717 61,178.5C 60.3333,176.833 60.3333,175.167 61,173.5C 68.1153,166.215 75.282,159.215 82.5,152.5 Z"/></g>
<g><path style="opacity:0.822" fill="#eb7d0f" d="M 165.5,152.5 C 173.379,158.872 180.879,165.872 188,173.5C 188.667,175.167 188.667,176.833 188,178.5C 181.285,185.717 174.118,192.384 166.5,198.5C 162.282,196.973 161.449,194.306 164,190.5C 168.865,185.3 174.032,180.467 179.5,176C 174,170.5 168.5,165 163,159.5C 161.916,156.341 162.75,154.008 165.5,152.5 Z"/></g>
<g><path style="opacity:0.867" fill="#eb7d0f" d="M 120.5,156.5 C 135.978,156.477 143.478,164.143 143,179.5C 137.245,193.752 127.412,197.586 113.5,191C 102.833,180.667 102.833,170.333 113.5,160C 115.925,158.787 118.259,157.621 120.5,156.5 Z M 121.5,164.5 C 118.972,165.508 116.805,167.174 115,169.5C 111.897,177.206 114.064,182.706 121.5,186C 128.247,187.426 132.747,184.926 135,178.5C 135.819,168.817 131.319,164.15 121.5,164.5 Z"/></g>
</svg>
