<?xml version="1.0" encoding="utf-8"?>
<!-- Generator: Adobe Illustrator 23.0.2, SVG Export Plug-In . SVG Version: 6.00 Build 0)  -->
<svg version="1.1" id="Layer_1" xmlns="http://www.w3.org/2000/svg" xmlns:xlink="http://www.w3.org/1999/xlink" x="0px" y="0px"
	 viewBox="0 0 700 700" style="enable-background:new 0 0 700 700;" xml:space="preserve">
<style type="text/css">
	.st0{fill:#CCDE7A;}
</style>
<g>
	<path class="st0" d="M585.3,376.1c-2.9,0-5.3,2.4-5.3,5.3v104.9h-32c9.4-8.1,14.7-20,14.7-32.4v-80.1c0-34.2-16.9-53-27.5-61.3l0,0
		c14.5-8.7,24.3-23.4,26.9-40.1c2.6-16.7-2.5-33.7-13.7-46.3S520.9,206.4,504,207c-16.9,0.5-32.7,8.5-43.1,21.9
		c-10.4,13.3-14.3,30.6-10.7,47.1c3.6,16.5,14.4,30.6,29.3,38.4l-7.6,13.6c-1.7,3-4.1,5.5-7.1,7.3s-6.4,2.7-9.8,2.7h-65.4
		c-12.8,0-23.6,9.6-24.8,21.8c-0.5,5.6,0.9,11.2,4,15.8h-38c3.1-4.7,4.5-10.2,4-15.8c-1.2-12.2-12-21.8-24.8-21.8h-65.4
		c-3.5,0-6.9-0.9-9.9-2.7c-3-1.8-5.4-4.3-7.1-7.3l-7.6-13.6l0,0c15-7.8,25.7-21.8,29.3-38.4c3.6-16.5-0.3-33.8-10.7-47.1
		s-26.2-21.3-43.1-21.9c-16.9-0.5-33.1,6.5-44.3,19.1s-16.2,29.6-13.7,46.3c2.6,16.7,12.4,31.4,26.9,40.1
		c-10.6,8.4-27.5,27.1-27.5,61.3v80.1c0,12.4,5.4,24.3,14.8,32.4h-32V381.5c0.1-1.4-0.5-2.9-1.5-3.9c-1-1.1-2.4-1.6-3.8-1.6
		c-1.5,0-2.8,0.6-3.8,1.6s-1.5,2.5-1.5,3.9v204.7c-0.1,1.4,0.5,2.9,1.5,3.9c1,1.1,2.4,1.6,3.8,1.6s2.8-0.6,3.8-1.6
		c1-1.1,1.5-2.5,1.5-3.9V497h130.7v67.4c0,13.9,10.4,25.7,23.6,27l0,0c0.8,0.1,1.7,0.1,2.5,0.1c7,0,13.6-2.8,18.6-7.7
		c4.9-4.9,7.7-11.6,7.7-18.6v-95.3c0-11.6-4.6-22.6-12.8-30.8c-8.2-8.2-19.3-12.8-30.8-12.8h-35.7v-40.2h107.4v200
		c0,1.4,0.6,2.8,1.6,3.8s2.4,1.6,3.8,1.6h27.1c1.4,0,2.8-0.6,3.8-1.6s1.6-2.3,1.6-3.8v-200h107.4v40.2h-35.8
		c-11.6,0-22.6,4.6-30.8,12.8c-8.2,8.2-12.8,19.3-12.8,30.8v95.4c0,7,2.7,13.7,7.7,18.6c4.9,4.9,11.6,7.7,18.6,7.7
		c0.8,0,1.7,0,2.5-0.1c13.3-1.3,23.6-13.1,23.6-27v-67.4H580v89.2c-0.1,1.4,0.5,2.9,1.5,3.9c1,1.1,2.4,1.6,3.8,1.6
		c1.5,0,2.8-0.6,3.8-1.6c1-1.1,1.5-2.5,1.5-3.9V381.5c0-1.4-0.6-2.8-1.5-3.8C588,376.7,586.7,376.1,585.3,376.1L585.3,376.1z
		 M459.7,263.8c0-11.2,4.1-22.1,11.5-30.5s17.7-13.9,28.8-15.3c11.2-1.4,22.4,1.3,31.8,7.6c9.3,6.3,16,15.8,18.8,26.7
		s1.6,22.4-3.5,32.5c-5.1,10-13.7,17.9-24.1,22l-0.2,0.1l0,0c-14.2,5.6-30.3,3.8-42.9-4.8C467.3,293.4,459.7,279.1,459.7,263.8
		L459.7,263.8z M147.9,263.8c0-13.3,5.7-25.9,15.6-34.7c9.9-8.8,23.2-12.9,36.3-11.2c13.2,1.6,25,8.9,32.5,19.8
		c7.5,11,9.9,24.6,6.6,37.5c-3.3,12.9-11.9,23.7-23.7,29.7s-25.6,6.7-38,1.9l-0.3-0.1c-8.6-3.4-15.9-9.4-21.1-17
		C150.7,282.1,147.9,273,147.9,263.8L147.9,263.8z M259.5,436.9c8.7,0,17.1,3.5,23.3,9.7c6.2,6.2,9.7,14.6,9.7,23.3v95.4
		c0,4.4-1.9,8.6-5.1,11.5c-3.3,3-7.6,4.4-12,4c-7.9-0.7-14-8-14-16.4v-72.7c0-1.4-0.6-2.8-1.6-3.8s-2.4-1.6-3.8-1.6h-75.8
		c-8.6,0-16.8-3.4-22.9-9.5c-6.1-6.1-9.5-14.3-9.5-22.9v-80.1c0-36.1,21.3-52.1,27.9-56.2c11.2,3.8,23.3,4,34.6,0.6l8.2,14.8
		c2.6,4.7,6.4,8.6,11,11.3c4.6,2.7,9.9,4.2,15.2,4.2h65.4c7.3,0,13.6,5.3,14.2,12.1c0.4,3.8-0.9,7.6-3.4,10.4
		c-2.6,2.8-6.2,4.4-10,4.4h-92.6c-2.9,0-5.3,2.4-5.3,5.3v50.8c0,2.9,2.4,5.3,5.3,5.3L259.5,436.9z M358.3,580.8h-16.5v-194h16.5
		V580.8z M469,486.3h-25.1c-1.4,0-2.8,0.6-3.8,1.6s-1.6,2.4-1.6,3.8v72.7c0,8.4-6.2,15.7-14,16.4l0,0c-4.4,0.4-8.7-1-12-3.9
		c-3.3-3-5.1-7.1-5.1-11.5V470c0-8.7,3.5-17.1,9.7-23.3c6.2-6.2,14.6-9.7,23.3-9.7h41.1c1.4,0,2.8-0.6,3.8-1.6s1.6-2.3,1.6-3.8
		v-50.8c0-2.9-2.4-5.3-5.3-5.3H389c-3.8,0-7.4-1.6-10-4.4s-3.8-6.6-3.4-10.4c0.7-6.8,6.9-12.1,14.2-12.1h65.4l0,0
		c5.4,0,10.6-1.4,15.2-4.2c4.6-2.7,8.4-6.6,11-11.3l8.2-14.8l0,0c11.3,3.4,23.4,3.2,34.6-0.6c6.5,4.1,27.9,20.2,27.9,56.2V454l0,0
		c0,8.6-3.4,16.8-9.5,22.9s-14.3,9.5-22.9,9.5L469,486.3z"/>
	<path class="st0" d="M348.2,260.5c27.8,0,54-9.2,72.5-25.2l22.7,2.8h0.6l0,0c1.6,0,3.2-0.8,4.2-2c1-1.3,1.4-2.9,1-4.5l-6.8-27.3
		c2.2-6.4,3.3-13.1,3.3-19.8c0-42-43.8-76.1-97.5-76.1s-97.5,34.1-97.5,76.1C250.7,226.4,294.4,260.5,348.2,260.5L348.2,260.5z
		 M348.2,118.9c47.9,0,86.9,29.4,86.9,65.5l0,0c0,6.1-1.1,12-3.2,17.7c-0.3,0.7-0.4,1.5-0.3,2.3c0,0.3,0.1,0.6,0.1,0.9l5.3,21.3
		l-17.3-2.2c-0.1,0-0.1,0-0.2,0c-0.2,0-0.4,0-0.7,0h-0.3c-0.3,0-0.5,0.1-0.8,0.1h-0.2c-0.3,0.1-0.6,0.2-0.9,0.3h-0.1
		c-0.3,0.1-0.5,0.3-0.8,0.5l-0.1,0.1c-0.1,0.1-0.2,0.1-0.3,0.2c-16.6,15.3-41.1,24.1-67.2,24.1c-47.9,0-86.9-29.4-86.9-65.5
		C261.3,148.1,300.3,118.9,348.2,118.9L348.2,118.9z"/>
	<path class="st0" d="M300.9,173.8h100.6c2.9,0,5.3-2.4,5.3-5.3c0-2.9-2.4-5.3-5.3-5.3H300.9c-2.9,0-5.3,2.4-5.3,5.3
		C295.6,171.4,297.9,173.8,300.9,173.8z"/>
	<path class="st0" d="M300.9,210.7h87.7c2.9,0,5.3-2.4,5.3-5.3c0-2.9-2.4-5.3-5.3-5.3h-87.7c-2.9,0-5.3,2.4-5.3,5.3
		C295.6,208.3,297.9,210.7,300.9,210.7z"/>
</g>
</svg>
